<svg width="32" height="32" viewBox="0 0 32 32" fill="none" xmlns="http://www.w3.org/2000/svg">
  <!-- Background rounded rectangle -->
  <rect width="32" height="32" rx="8" fill="#1C1C1C"/>
  <!-- Letter "b" -->
  <path d="M12 8V24H15.5C18.5 24 21 21.5 21 18.5C21 16.2 19.5 14.3 17.4 13.6C19 13 20 11.2 20 9.5C20 8.1 19.4 6.8 18.4 5.9C17.4 5 16 4.5 14.7 4.5H9V8H12ZM15 11.5H12V8H14.7C15.3 8 15.9 8.2 16.3 8.6C16.7 9 17 9.6 17 10.2C17 10.8 16.7 11.4 16.3 11.8C15.9 12.2 15.3 12.4 14.7 12.4H12V11.5ZM12 20.5V15.5H15.5C16.2 15.5 16.9 15.8 17.4 16.3C17.9 16.8 18.2 17.5 18.2 18.2C18.2 18.9 17.9 19.6 17.4 20.1C16.9 20.6 16.2 20.9 15.5 20.9H12V20.5Z" fill="white"/>
</svg>